<?xml version="1.0" encoding="UTF-8" standalone="no"?>
<!-- Created with Inkscape (http://www.inkscape.org/) -->

<svg
   xmlns:dc="http://purl.org/dc/elements/1.1/"
   xmlns:cc="http://creativecommons.org/ns#"
   xmlns:rdf="http://www.w3.org/1999/02/22-rdf-syntax-ns#"
   xmlns:svg="http://www.w3.org/2000/svg"
   xmlns="http://www.w3.org/2000/svg"
   xmlns:xlink="http://www.w3.org/1999/xlink"
   xmlns:sodipodi="http://sodipodi.sourceforge.net/DTD/sodipodi-0.dtd"
   xmlns:inkscape="http://www.inkscape.org/namespaces/inkscape"
   width="210mm"
   height="297mm"
   viewBox="0 0 210 297"
   version="1.1"
   id="svg8"
   inkscape:version="0.92.4 (5da689c313, 2019-01-14)"
   sodipodi:docname="drawing.svg">
  <defs
     id="defs2">
    <radialGradient
       id="Gradient_1"
       gradientUnits="userSpaceOnUse"
       cx="0"
       cy="0"
       r="13.5875"
       fx="0"
       fy="0"
       gradientTransform="matrix( 1, 0, 0, 1, 0,0) "
       spreadMethod="pad">
      <stop
         offset="0%"
         stop-color="#000000"
         stop-opacity="0.30196078431372547"
         id="stop2" />
      <stop
         offset="100%"
         stop-color="#000000"
         stop-opacity="0"
         id="stop4" />
    </radialGradient>
    <radialGradient
       id="radialGradient8854"
       gradientUnits="userSpaceOnUse"
       cx="0"
       cy="0"
       r="13.5875"
       fx="0"
       fy="0"
       gradientTransform="matrix( 1, 0, 0, 1, 0,0) "
       spreadMethod="pad">
      <stop
         offset="0%"
         stop-color="#000000"
         stop-opacity="0.30196078431372547"
         id="stop8850" />
      <stop
         offset="100%"
         stop-color="#000000"
         stop-opacity="0"
         id="stop8852" />
    </radialGradient>
    <radialGradient
       inkscape:collect="always"
       xlink:href="#Gradient_1"
       id="radialGradient1041"
       gradientUnits="userSpaceOnUse"
       cx="0"
       cy="0"
       fx="0"
       fy="0"
       r="13.5875"
       spreadMethod="pad" />
    <radialGradient
       id="Gradient_1-2"
       gradientUnits="userSpaceOnUse"
       cx="0"
       cy="0"
       r="13.5875"
       fx="0"
       fy="0"
       gradientTransform="matrix( 1, 0, 0, 1, 0,0) "
       spreadMethod="pad">
      <stop
         offset="0%"
         stop-color="#000000"
         stop-opacity="0.30196078431372547"
         id="stop2-7" />
      <stop
         offset="100%"
         stop-color="#000000"
         stop-opacity="0"
         id="stop4-5" />
    </radialGradient>
    <radialGradient
       id="radialGradient8967"
       gradientUnits="userSpaceOnUse"
       cx="0"
       cy="0"
       r="13.5875"
       fx="0"
       fy="0"
       gradientTransform="matrix( 1, 0, 0, 1, 0,0) "
       spreadMethod="pad">
      <stop
         offset="0%"
         stop-color="#000000"
         stop-opacity="0.30196078431372547"
         id="stop8963" />
      <stop
         offset="100%"
         stop-color="#000000"
         stop-opacity="0"
         id="stop8965" />
    </radialGradient>
    <radialGradient
       id="Gradient_1-3"
       gradientUnits="userSpaceOnUse"
       cx="0"
       cy="0"
       r="13.5875"
       fx="0"
       fy="0"
       gradientTransform="matrix( 1, 0, 0, 1, 0,0) "
       spreadMethod="pad">
      <stop
         offset="0%"
         stop-color="#000000"
         stop-opacity="0.30196078431372547"
         id="stop2-6" />
      <stop
         offset="100%"
         stop-color="#000000"
         stop-opacity="0"
         id="stop4-6" />
    </radialGradient>
    <radialGradient
       id="radialGradient6043"
       gradientUnits="userSpaceOnUse"
       cx="0"
       cy="0"
       r="13.5875"
       fx="0"
       fy="0"
       gradientTransform="matrix( 1, 0, 0, 1, 0,0) "
       spreadMethod="pad">
      <stop
         offset="0%"
         stop-color="#000000"
         stop-opacity="0.30196078431372547"
         id="stop6039" />
      <stop
         offset="100%"
         stop-color="#000000"
         stop-opacity="0"
         id="stop6041" />
    </radialGradient>
    <radialGradient
       inkscape:collect="always"
       xlink:href="#Gradient_1"
       id="radialGradient1674"
       gradientUnits="userSpaceOnUse"
       cx="0"
       cy="0"
       fx="0"
       fy="0"
       r="13.5875"
       spreadMethod="pad" />
  </defs>
  <sodipodi:namedview
     id="base"
     pagecolor="#ffffff"
     bordercolor="#666666"
     borderopacity="1.0"
     inkscape:pageopacity="0.0"
     inkscape:pageshadow="2"
     inkscape:zoom="0.35"
     inkscape:cx="894.97964"
     inkscape:cy="29.702826"
     inkscape:document-units="mm"
     inkscape:current-layer="layer1"
     showgrid="false"
     inkscape:window-width="2560"
     inkscape:window-height="1346"
     inkscape:window-x="-11"
     inkscape:window-y="49"
     inkscape:window-maximized="1"
     inkscape:snap-global="false" />
  <metadata
     id="metadata5">
    <rdf:RDF>
      <cc:Work
         rdf:about="">
        <dc:format>image/svg+xml</dc:format>
        <dc:type
           rdf:resource="http://purl.org/dc/dcmitype/StillImage" />
        <dc:title></dc:title>
      </cc:Work>
    </rdf:RDF>
  </metadata>
  <g
     inkscape:label="Layer 1"
     inkscape:groupmode="layer"
     id="layer1">
    <rect
       style="opacity:1;fill:#f4d7d7;fill-opacity:1;stroke:none;stroke-width:1.76399994;stroke-linecap:round;stroke-linejoin:bevel;stroke-miterlimit:4;stroke-dasharray:none;stroke-dashoffset:0;stroke-opacity:0.2"
       id="rect1865"
       width="677.33331"
       height="381"
       x="-396.91254"
       y="-64.240952" />
    <g
       id="g1421"
       transform="matrix(2.2246255,0,0,2.2246255,1207.2502,-139.45387)"
       inkscape:export-xdpi="96"
       inkscape:export-ydpi="96">
      <g
         id="g2230"
         transform="matrix(1.125251,2.975445,-2.975445,1.125251,-323.50696,157.78201)">
        <g
           id="g2228">
          <g
             id="use2226"
             transform="scale(0.26458333)">
            <path
               d="M 3.65,4.8 H 3.6 Q 2.35,4.65 1.35,5.45 0.85,5.85 0.55,6.4 0.3,6.9 0.25,7.5 L -0.3,11.45 -2.05,20.35 15.45,23 16,20.05 11.5,13.25 5.85,12.45 6.35,8.2 Q 6.45,6.95 5.65,5.95 4.9,4.95 3.65,4.8 m 1.1,3.4 Q 4.7,8.8 4.25,9.2 3.75,9.55 3.15,9.5 2.55,9.45 2.15,9 1.75,8.5 1.8,7.9 1.85,7.3 2.4,6.9 2.9,6.5 3.5,6.55 4.1,6.6 4.5,7.1 4.8,7.6 4.75,8.2 Z"
               id="path1005"
               inkscape:connector-curvature="0"
               style="fill:#334e63;stroke:none" />
            <path
               d="M 4.25,9.2 Q 4.7,8.8 4.75,8.2 4.8,7.6 4.5,7.1 4.1,6.6 3.5,6.55 2.9,6.5 2.4,6.9 1.85,7.3 1.8,7.9 1.75,8.5 2.15,9 q 0.4,0.45 1,0.5 0.6,0.05 1.1,-0.3 m -6.8,-15 q -2.35,0.6 -3.6,2.7 -1.25,2.15 -0.65,4.55 0.6,2.35 2.75,3.65 1.95,1.15 2.9,2.9 v 0.05 q 0.77558594,1.5353516 0.85,3.4 L 0.25,7.5 Q 0.3,6.9 0.55,6.4 0.85,5.85 1.35,5.45 2.35,4.65 3.6,4.8 h 0.05 q 1.25,0.15 2,1.15 0.8,1 0.7,2.25 l -0.5,4.25 5.65,0.8 Q 11.65,9.7 11.05,6.7 9.3,-0.85 2,-5.15 -0.15,-6.45 -2.55,-5.8 Z"
               id="path1007"
               inkscape:connector-curvature="0"
               style="fill:#477ca6;stroke:none" />
          </g>
        </g>
      </g>
      <g
         id="g2424"
         transform="matrix(-1.5906027,-2.7548312,-2.7548312,1.5906027,-330.38397,131.13229)">
        <g
           id="g2422">
          <g
             id="use2420"
             transform="scale(0.26458333)">
            <path
               d="m 6.4,14.7 q -1.3080078,0 -2.45,-0.5 0.7417969,2.80957 0.85,6 0.05,1.6 1.35,2.75 1.2,1.1 2.9,1.05 1.7,-0.05 2.9,-1.25 1.1,-1.25 1.05,-2.85 -0.172266,-4.550977 -1.3,-8.5 -0.401758,0.924609 -1.2,1.7 -1.7,1.6 -4.1,1.6 m 0,-11.25 q 1.0324219,0 1.9,0.3 -2.9074219,-4.59921875 -7.7,-7.95 -1.4,-1 -3.1,-0.75 -1.7,0.25 -2.65,1.55 -1.05,1.3 -0.8,2.95 0.3,1.6 1.65,2.6 Q -1.2039062,4.3742187 0.85,7.3 1.2525391,6.0974609 2.25,5.1 4,3.45 6.4,3.45 M 5.05,7.1 Q 4.85,7.3 4.7,7.55 4.25,8.2 4.25,9.05 4.25,10.2 5.05,11 5.9,11.8 7.1,11.8 8,11.8 8.7,11.4 8.9,11.2 9.1,11 9.5,10.65 9.7,10.35 10,9.75 10,9.05 10,7.9 9.1,7.1 8.3,6.3 7.1,6.3 6.35,6.3 5.8,6.6 5.4,6.8 5.05,7.1 Z"
               id="path977"
               inkscape:connector-curvature="0"
               style="fill:#477ca6;stroke:none" />
            <path
               d="m 11.7,11.4 q 0.55,-1.049023 0.55,-2.3 0,-2.3 -1.75,-4 Q 9.53125,4.1597656 8.3,3.75 7.4324219,3.45 6.4,3.45 4,3.45 2.25,5.1 1.2525391,6.0974609 0.85,7.3 q -0.3,0.8494141 -0.3,1.8 0,2.3 1.7,4 0.7962891,0.72793 1.7,1.1 1.1419922,0.5 2.45,0.5 2.4,0 4.1,-1.6 0.798242,-0.775391 1.2,-1.7 M 4.7,7.55 Q 4.85,7.3 5.05,7.1 5.4,6.8 5.8,6.6 6.35,6.3 7.1,6.3 q 1.2,0 2,0.8 0.9,0.8 0.9,1.95 0,0.7 -0.3,1.3 Q 9.5,10.65 9.1,11 8.9,11.2 8.7,11.4 8,11.8 7.1,11.8 5.9,11.8 5.05,11 4.25,10.2 4.25,9.05 4.25,8.2 4.7,7.55 Z"
               id="path979"
               inkscape:connector-curvature="0"
               style="fill:#334e63;stroke:none" />
          </g>
        </g>
      </g>
      <g
         id="g2430"
         transform="matrix(-1.1934496,2.9486995,2.9486995,1.1934496,-294.75893,141.94868)">
        <g
           id="g2428">
          <g
             id="use2426"
             transform="scale(0.26458333)">
            <path
               d="m 6.4,14.7 q -1.3080078,0 -2.45,-0.5 0.7417969,2.80957 0.85,6 0.05,1.6 1.35,2.75 1.2,1.1 2.9,1.05 1.7,-0.05 2.9,-1.25 1.1,-1.25 1.05,-2.85 -0.172266,-4.550977 -1.3,-8.5 -0.401758,0.924609 -1.2,1.7 -1.7,1.6 -4.1,1.6 m 0,-11.25 q 1.0324219,0 1.9,0.3 -2.9074219,-4.59921875 -7.7,-7.95 -1.4,-1 -3.1,-0.75 -1.7,0.25 -2.65,1.55 -1.05,1.3 -0.8,2.95 0.3,1.6 1.65,2.6 Q -1.2039062,4.3742187 0.85,7.3 1.2525391,6.0974609 2.25,5.1 4,3.45 6.4,3.45 M 5.05,7.1 Q 4.85,7.3 4.7,7.55 4.25,8.2 4.25,9.05 4.25,10.2 5.05,11 5.9,11.8 7.1,11.8 8,11.8 8.7,11.4 8.9,11.2 9.1,11 9.5,10.65 9.7,10.35 10,9.75 10,9.05 10,7.9 9.1,7.1 8.3,6.3 7.1,6.3 6.35,6.3 5.8,6.6 5.4,6.8 5.05,7.1 Z"
               id="path983"
               inkscape:connector-curvature="0"
               style="fill:#477ca6;stroke:none" />
            <path
               d="m 11.7,11.4 q 0.55,-1.049023 0.55,-2.3 0,-2.3 -1.75,-4 Q 9.53125,4.1597656 8.3,3.75 7.4324219,3.45 6.4,3.45 4,3.45 2.25,5.1 1.2525391,6.0974609 0.85,7.3 q -0.3,0.8494141 -0.3,1.8 0,2.3 1.7,4 0.7962891,0.72793 1.7,1.1 1.1419922,0.5 2.45,0.5 2.4,0 4.1,-1.6 0.798242,-0.775391 1.2,-1.7 M 4.7,7.55 Q 4.85,7.3 5.05,7.1 5.4,6.8 5.8,6.6 6.35,6.3 7.1,6.3 q 1.2,0 2,0.8 0.9,0.8 0.9,1.95 0,0.7 -0.3,1.3 Q 9.5,10.65 9.1,11 8.9,11.2 8.7,11.4 8,11.8 7.1,11.8 5.9,11.8 5.05,11 4.25,10.2 4.25,9.05 4.25,8.2 4.7,7.55 Z"
               id="path985"
               inkscape:connector-curvature="0"
               style="fill:#334e63;stroke:none" />
          </g>
        </g>
      </g>
      <g
         id="g2436"
         transform="matrix(-1.5905056,2.7549284,2.7549284,1.5905056,-280.00317,156.48384)">
        <g
           id="g2434">
          <g
             id="use2432"
             transform="scale(0.26458333)">
            <path
               d="m -1.15,10.65 q -0.1,-0.1 -0.15,0.05 -0.1,0.15 -0.15,0.35 v 3.5 q 0,0.15 0.15,0.4 0.1,0.05 0.25,0.05 2.8,-0.05 4.8,-2.05 H 3.8 Q 5.9,10.85 6,7.85 6.05,4.8 4.05,2.7 L 3.9,2.55 Q 3.8726563,3.1056641 3.7,3.65 3.190625,5.5488281 1.5,6.6 1.75,7.146875 1.75,7.75 1.65,8.9 0.95,9.75 0.9,9.75 0.8,9.8 0.05,10.6 -1.15,10.65 M -5.7,-0.45 q -0.4146484,0.0912109 -0.85,0.2 -2.8,0.65 -4.4,3.25 -1.5,2.6 -0.85,5.5 0,0.05 0,0.1 0.75,2.75 3.1,4.25 0.15,0.1 0.3,0.1 0.1,-0.05 0.15,-0.2 L -6.3,9.7 Q -6.2,9.6 -6.2,9.5 -6.3,9.3 -6.4,9.2 -7.3,8.6 -7.6,7.5 -7.6,7.45 -7.6,7.4 -7.85,6.3 -7.25,5.3 -6.7638672,4.5146484 -6.05,4.15 -6.6167969,2.5091797 -6.2,0.8 -6.0076172,0.14257812 -5.7,-0.45 Z"
               id="path1011"
               inkscape:connector-curvature="0"
               style="fill:#bfd4e5;stroke:none" />
            <path
               d="m 3.25,-0.3 q -1,-1.85 -3.05,-2.5 -2,-0.6 -3.95,0.45 -1.2568359,0.7472656 -1.95,1.9 -0.3076172,0.59257812 -0.5,1.25 -0.4167969,1.7091797 0.15,3.35 0.1421875,0.3259766 0.3,0.65 1.05,1.85 3.1,2.45 Q -0.6,7.8 1.25,6.8 1.3902344,6.7189453 1.5,6.6 3.190625,5.5488281 3.7,3.65 3.8726563,3.1056641 3.9,2.55 4.0580078,1.0955078 3.25,-0.3 Z"
               id="path1013"
               inkscape:connector-curvature="0"
               style="fill:#5393c5;stroke:none" />
          </g>
        </g>
      </g>
      <g
         id="g2442"
         transform="matrix(-1.5905542,-2.7548798,-2.7548798,1.5905542,-351.69657,132.97967)">
        <g
           id="g2440">
          <g
             id="use2438"
             transform="scale(0.26458333)">
            <path
               d="m -1.15,10.65 q -0.1,-0.1 -0.15,0.05 -0.1,0.15 -0.15,0.35 v 3.5 q 0,0.15 0.15,0.4 0.1,0.05 0.25,0.05 2.8,-0.05 4.8,-2.05 H 3.8 Q 5.9,10.85 6,7.85 6.05,4.8 4.05,2.7 L 3.9,2.55 Q 3.8726563,3.1056641 3.7,3.65 3.190625,5.5488281 1.5,6.6 1.75,7.146875 1.75,7.75 1.65,8.9 0.95,9.75 0.9,9.75 0.8,9.8 0.05,10.6 -1.15,10.65 M -5.7,-0.45 q -0.4146484,0.0912109 -0.85,0.2 -2.8,0.65 -4.4,3.25 -1.5,2.6 -0.85,5.5 0,0.05 0,0.1 0.75,2.75 3.1,4.25 0.15,0.1 0.3,0.1 0.1,-0.05 0.15,-0.2 L -6.3,9.7 Q -6.2,9.6 -6.2,9.5 -6.3,9.3 -6.4,9.2 -7.3,8.6 -7.6,7.5 -7.6,7.45 -7.6,7.4 -7.85,6.3 -7.25,5.3 -6.7638672,4.5146484 -6.05,4.15 -6.6167969,2.5091797 -6.2,0.8 -6.0076172,0.14257812 -5.7,-0.45 Z"
               id="path1017"
               inkscape:connector-curvature="0"
               style="fill:#bfd4e5;stroke:none" />
            <path
               d="m 3.25,-0.3 q -1,-1.85 -3.05,-2.5 -2,-0.6 -3.95,0.45 -1.2568359,0.7472656 -1.95,1.9 -0.3076172,0.59257812 -0.5,1.25 -0.4167969,1.7091797 0.15,3.35 0.1421875,0.3259766 0.3,0.65 1.05,1.85 3.1,2.45 Q -0.6,7.8 1.25,6.8 1.3902344,6.7189453 1.5,6.6 3.190625,5.5488281 3.7,3.65 3.8726563,3.1056641 3.9,2.55 4.0580078,1.0955078 3.25,-0.3 Z"
               id="path1019"
               inkscape:connector-curvature="0"
               style="fill:#5393c5;stroke:none" />
          </g>
        </g>
      </g>
      <g
         id="g2448"
         transform="matrix(3.1811083,0,-0.51864843,3.1811083,-309.15675,160.11567)">
        <g
           id="g2446">
          <g
             id="use2444"
             transform="scale(0.26458333)">
            <path
               d="M 11,20 5.25,14 h -5.8 V 9.65 Q -0.55,8.4 -1.45,7.5 -2.35,6.6 -3.6,6.6 h -0.05 q -1.25,0 -2.15,0.9 -0.45,0.45 -0.7,1 -0.2,0.55 -0.2,1.15 L -7,23 H 10.9 L 11,20 M -3.6,8.35 q 0.6,0 1.05,0.45 0.45,0.45 0.45,1.05 0,0.6 -0.45,1.05 -0.45,0.45 -1.05,0.45 -0.6,0 -1.05,-0.45 Q -5.1,10.45 -5.1,9.85 -5.1,9.25 -4.65,8.8 -4.2,8.35 -3.6,8.35 Z"
               id="path971"
               inkscape:connector-curvature="0"
               style="fill:#334e63;stroke:none" />
            <path
               d="M -2.55,8.8 Q -3,8.35 -3.6,8.35 q -0.6,0 -1.05,0.45 -0.45,0.45 -0.45,1.05 0,0.6 0.45,1.05 0.45,0.45 1.05,0.45 0.6,0 1.05,-0.45 0.45,-0.45 0.45,-1.05 0,-0.6 -0.45,-1.05 m 8.45,-9 Q 5.9,-2.6 4,-4.3 2.15,-6 -0.55,-6 -3.2,-6 -5.1,-4.3 -7,-2.6 -7,-0.2 l 0.5,8.7 q 0.25,-0.55 0.7,-1 0.9,-0.9 2.15,-0.9 h 0.05 q 1.25,0 2.15,0.9 0.9,0.9 0.9,2.15 V 14 h 5.8 0.05 z"
               id="path973"
               inkscape:connector-curvature="0"
               style="fill:#477ca6;stroke:none" />
          </g>
        </g>
      </g>
      <g
         id="g2458"
         transform="matrix(3.0933483,0.74183467,-0.74183467,3.0933483,-314.86866,151.96276)">
        <g
           id="g2452">
          <g
             id="use2450"
             transform="scale(0.26458333)">
            <path
               d="m -12.95,-14.9 q 1.95,-1.9 1.95,-4.6 0,-2.7 -1.95,-4.6 -1.9,-1.9 -4.6,-1.9 -2.7,0 -4.55,1.9 -1.9,1.9 -1.9,4.6 0,2.7 1.9,4.6 1.85,1.9 4.55,1.9 2.7,0 4.6,-1.9 m 34.05,0 q 1.9,-1.9 1.9,-4.6 0,-2.7 -1.9,-4.6 -1.9,-1.9 -4.6,-1.9 -2.7,0 -4.55,1.9 -1.95,1.9 -1.95,4.6 0,2.7 1.95,4.6 1.85,1.9 4.55,1.9 2.7,0 4.6,-1.9 z"
               id="path1023"
               inkscape:connector-curvature="0"
               style="fill:#334e63;stroke:none" />
          </g>
        </g>
        <g
           id="g2456">
          <g
             id="use2454"
             transform="scale(0.26458333)">
            <path
               d="M 12.9,8 Q 14.3,6.05 14.4,2.75 H -15.5 Q -15.4,6.05 -14,8 Z"
               id="path1027"
               inkscape:connector-curvature="0"
               style="fill:#5393c5;stroke:none" />
            <path
               d="m 7.75,-2.25 q 1.35,-2.2 1.35,-5 0,-4 -2.8,-6.85 -2.85,-2.85 -6.85,-2.85 -4,0 -6.85,2.85 -2.85,2.85 -2.85,6.85 0,2.8 1.4,5 h -6.65 v 5 h 29.9 v -5 H 7.75 M 4.5,-8.8 2.85,-3.55 Q 2.8,-3.35 2.6,-3.2 2.4,-3.05 2.15,-3.05 H -3.1 q -0.2,0 -0.4,-0.15 -0.25,-0.15 -0.3,-0.35 L -5.45,-8.8 q -0.05,-0.25 0,-0.5 0.1,-0.2 0.3,-0.4 l 4.3,-3.15 q 0.15,-0.15 0.4,-0.15 0.2,0 0.45,0.15 l 4.25,3.15 q 0.15,0.2 0.25,0.4 0.05,0.25 0,0.5 z"
               id="path1029"
               inkscape:connector-curvature="0"
               style="fill:#334e63;stroke:none" />
            <path
               d="M 2.85,-3.55 4.5,-8.8 Q 4.55,-9.05 4.5,-9.3 4.4,-9.5 4.25,-9.7 L 0,-12.85 Q -0.25,-13 -0.45,-13 q -0.25,0 -0.4,0.15 l -4.3,3.15 q -0.2,0.2 -0.3,0.4 -0.05,0.25 0,0.5 l 1.65,5.25 q 0.05,0.2 0.3,0.35 0.2,0.15 0.4,0.15 h 5.25 q 0.25,0 0.45,-0.15 0.2,-0.15 0.25,-0.35 z"
               id="path1031"
               inkscape:connector-curvature="0"
               style="fill:#ff6699;stroke:none" />
            <path
               d="m 17.65,-16 q 1.25,-5 -2.25,-5.25 h -5.35 q 0,-0.1 0,-0.25 0.05,-0.25 0.05,-0.5 0,-3.75 -3.05,-6.45 Q 3.9,-31 -0.5,-31 q -4.4,0 -7.55,2.55 -3.05,2.7 -3.05,6.45 0,0.25 0.05,0.5 0,0.15 0.05,0.25 h -5.15 q -3.65,-0.2 -2.6,5.25 l 3.25,13.75 h 6.65 q -1.4,-2.2 -1.4,-5 0,-4 2.85,-6.85 2.85,-2.85 6.85,-2.85 4,0 6.85,2.85 2.8,2.85 2.8,6.85 0,2.8 -1.35,5 h 6.65 z"
               id="path1033"
               inkscape:connector-curvature="0"
               style="fill:#477ca6;stroke:none" />
          </g>
        </g>
      </g>
      <g
         id="g2464"
         transform="matrix(4.2603922,0,0,3.1811083,-310.67281,131.4258)">
        <g
           id="g2462">
          <g
             id="use2460"
             transform="scale(0.26458333)">
            <path
               d="m 9.45,-9.55 q -3.9,-3.9 -9.45,-3.9 -5.55,0 -9.55,3.9 -3.9,4 -3.9,9.55 0,5.55 3.9,9.45 4,4 9.55,4 5.55,0 9.45,-4 4,-3.9 4,-9.45 0,-5.55 -4,-9.55 z"
               id="path1037"
               inkscape:connector-curvature="0"
               style="fill:url(#radialGradient1041);stroke:none" />
          </g>
        </g>
      </g>
      <g
         id="g2506"
         transform="matrix(3.105823,0.68780989,-0.68780989,3.105823,-306.53735,124.26822)">
        <g
           id="g2468">
          <g
             id="use2466"
             transform="scale(0.26458333)">
            <path
               d="M 11.85,-7.1 Q 17,-12.2 17,-19.45 17,-26.7 11.85,-31.85 6.7,-37 -0.55,-37 q -7.25,0 -12.4,5.15 -5.15,5.15 -5.15,12.4 0,7.25 5.15,12.35 5.15,5.2 12.4,5.2 7.25,0 12.4,-5.2 M 9.4,-19.45 q 0,4.1 -2.9,7 -2.95,2.95 -7.05,2.95 -4.1,0 -7,-2.95 -2.95,-2.9 -2.95,-7 0,-4.1 2.95,-7 2.9,-2.95 7,-2.95 4.1,0 7.05,2.95 2.9,2.9 2.9,7 z"
               id="path1043"
               inkscape:connector-curvature="0"
               style="fill:#bfd4e5;stroke:none" />
            <path
               d="m 6.5,-12.45 q 2.9,-2.9 2.9,-7 0,-4.1 -2.9,-7 -2.95,-2.95 -7.05,-2.95 -4.1,0 -7,2.95 -2.95,2.9 -2.95,7 0,4.1 2.95,7 2.9,2.95 7,2.95 4.1,0 7.05,-2.95 z"
               id="path1045"
               inkscape:connector-curvature="0"
               style="fill:#ffffff;stroke:none" />
          </g>
        </g>
        <g
           id="g2472">
          <g
             id="use2470"
             transform="scale(0.26458333)">
            <path
               d="m -16,-30.45 q -0.95,0.55 -1.25,1.65 l -2.2,8.2 q -0.3,1.1 0.25,2.15 0.65,0.95 1.75,1.25 h 0.05 q 1.1,0.3 2.1,-0.2 1,-0.65 1.3,-1.75 l 2.15,-8.2 q 0.3,-1.1 -0.3,-2.1 -0.55,-1 -1.6,-1.3 h -0.05 q -1.1,-0.3 -2.2,0.3 z"
               id="path1049"
               inkscape:connector-curvature="0"
               style="fill:#477ca6;stroke:none" />
          </g>
        </g>
        <g
           id="g2476">
          <g
             id="use2474"
             transform="scale(0.26458333)">
            <path
               d="m 16.3,-28.8 q -0.3,-1.1 -1.25,-1.65 -1.1,-0.6 -2.2,-0.3 H 12.8 q -1.1,0.3 -1.65,1.3 -0.6,1 -0.3,2.1 l 2.2,8.2 q 0.3,1.1 1.3,1.75 1,0.5 2.1,0.2 h 0.05 q 1.05,-0.3 1.7,-1.25 0.55,-1.05 0.25,-2.15 z"
               id="path1053"
               inkscape:connector-curvature="0"
               style="fill:#477ca6;stroke:none" />
          </g>
        </g>
        <g
           id="g2480">
          <g
             id="use2478"
             transform="scale(0.26458333)">
            <path
               d="m -24.65,-11 q -2.35,2.35 -2.35,5.65 0,3.3 2.35,5.6 2.4,2.4 5.65,2.4 3.3,0 5.7,-2.4 2.3,-2.3 2.3,-5.6 0,-3.3 -2.3,-5.65 -2.4,-2.4 -5.7,-2.4 -3.25,0 -5.65,2.4 m 2.3,9.05 q -1.4,-1.4 -1.4,-3.4 0,-1.95 1.4,-3.4 1.4,-1.4 3.35,-1.4 2.05,0 3.45,1.4 1.4,1.45 1.4,3.4 0,2 -1.4,3.4 -1.4,1.45 -3.45,1.45 -1.95,0 -3.35,-1.45 M 18,-13.4 q -3.25,0 -5.65,2.4 -2.35,2.35 -2.35,5.65 0,3.3 2.35,5.6 2.4,2.4 5.65,2.4 3.3,0 5.7,-2.4 2.3,-2.3 2.3,-5.6 0,-3.3 -2.3,-5.65 -2.4,-2.4 -5.7,-2.4 m 0,12.9 q -1.95,0 -3.35,-1.45 -1.45,-1.4 -1.45,-3.4 0,-1.95 1.45,-3.4 1.4,-1.4 3.35,-1.4 2,0 3.45,1.4 1.4,1.45 1.4,3.4 0,2 -1.4,3.4 Q 20,-0.5 18,-0.5 Z"
               id="path1057"
               inkscape:connector-curvature="0"
               style="fill:#5393c5;stroke:none" />
            <path
               d="m -23.75,-5.35 q 0,2 1.4,3.4 1.4,1.45 3.35,1.45 2.05,0 3.45,-1.45 1.4,-1.4 1.4,-3.4 0,-1.95 -1.4,-3.4 -1.4,-1.4 -3.45,-1.4 -1.95,0 -3.35,1.4 -1.4,1.45 -1.4,3.4 m 38.4,3.4 q 1.4,1.45 3.35,1.45 2,0 3.45,-1.45 1.4,-1.4 1.4,-3.4 0,-1.95 -1.4,-3.4 -1.45,-1.4 -3.45,-1.4 -1.95,0 -3.35,1.4 -1.45,1.45 -1.45,3.4 0,2 1.45,3.4 z"
               id="path1059"
               inkscape:connector-curvature="0"
               style="fill:#477ca6;stroke:none" />
          </g>
        </g>
        <g
           id="g2484">
          <g
             id="use2482"
             transform="scale(0.26458333)">
            <path
               d="m -18.2,8 h 8 q -0.05,-9.8 -9.3,-12.7 L -18.2,8 m 29.9,0 q 5.35,-0.7 6.1,-5.7 l 0.9,-8.75 Q 9.65,-1.8 9.3,8 Z"
               id="path1063"
               inkscape:connector-curvature="0"
               style="fill:#334e63;stroke:none" />
            <path
               d="m 18.7,-6.45 1.75,-16.9 H -21.4 l 1.9,18.65 q 9.25,2.9 9.3,12.7 H 9.3 q 0.35,-9.8 9.4,-14.45 z"
               id="path1065"
               inkscape:connector-curvature="0"
               style="fill:#5393c5;stroke:none" />
          </g>
        </g>
        <g
           id="g2488">
          <g
             id="use2486"
             transform="scale(0.26458333)">
            <path
               d="m 5.45,-4.6 q 2.35,-2.35 2.35,-5.65 0,-3.35 -2.35,-5.65 -2.35,-2.35 -5.65,-2.35 -3.35,0 -5.65,2.35 -2.35,2.3 -2.35,5.65 0,3.3 2.35,5.65 2.3,2.35 5.65,2.35 3.3,0 5.65,-2.35 m -0.3,-5.65 q 0,2.2 -1.6,3.75 -1.55,1.6 -3.75,1.6 -2.25,0 -3.85,-1.6 -1.55,-1.55 -1.55,-3.75 0,-2.25 1.55,-3.85 1.6,-1.5 3.85,-1.5 2.2,0 3.75,1.5 1.6,1.6 1.6,3.85 z"
               id="path1069"
               inkscape:connector-curvature="0"
               style="fill:#477ca6;stroke:none" />
            <path
               d="m 3.55,-6.5 q 1.6,-1.55 1.6,-3.75 0,-2.25 -1.6,-3.85 -1.55,-1.5 -3.75,-1.5 -2.25,0 -3.85,1.5 -1.55,1.6 -1.55,3.85 0,2.2 1.55,3.75 1.6,1.6 3.85,1.6 2.2,0 3.75,-1.6 M 2.9,-10.25 q 0,0.9 -0.65,1.5 -0.55,0.65 -1.45,0.65 -0.9,0 -1.55,-0.65 -0.6,-0.6 -0.6,-1.5 0,-0.9 0.6,-1.55 0.65,-0.6 1.55,-0.6 0.9,0 1.45,0.6 0.65,0.65 0.65,1.55 z"
               id="path1071"
               inkscape:connector-curvature="0"
               style="fill:#ffcc00;stroke:none" />
            <path
               d="m 2.25,-8.75 q 0.65,-0.6 0.65,-1.5 0,-0.9 -0.65,-1.55 -0.55,-0.6 -1.45,-0.6 -0.9,0 -1.55,0.6 -0.6,0.65 -0.6,1.55 0,0.9 0.6,1.5 0.65,0.65 1.55,0.65 0.9,0 1.45,-0.65 z"
               id="path1073"
               inkscape:connector-curvature="0"
               style="fill:#ffffff;stroke:none" />
          </g>
        </g>
        <g
           id="g2492">
          <g
             id="use2490"
             transform="scale(0.26458333)">
            <path
               d="m 15.15,-7.9 q 0.9,-0.85 0.9,-2.05 0,-1.2 -0.9,-2.1 -0.85,-0.85 -2.05,-0.85 -1.2,0 -2.1,0.85 -0.85,0.9 -0.85,2.1 0,1.2 0.85,2.05 0.9,0.85 2.1,0.85 1.2,0 2.05,-0.85 z"
               id="path989"
               inkscape:connector-curvature="0"
               style="fill:#477ca6;stroke:none" />
          </g>
        </g>
        <g
           id="g2496">
          <g
             id="use2494"
             transform="scale(0.26458333)">
            <path
               d="m -11.55,-7.9 q 0.9,-0.85 0.9,-2.05 0,-1.2 -0.9,-2.1 -0.85,-0.85 -2,-0.85 -1.2,0 -2.1,0.85 -0.85,0.9 -0.85,2.1 0,1.2 0.85,2.05 0.9,0.85 2.1,0.85 1.15,0 2,-0.85 z"
               id="path993"
               inkscape:connector-curvature="0"
               style="fill:#477ca6;stroke:none" />
          </g>
        </g>
        <g
           id="g2500">
          <g
             id="use2498"
             transform="scale(0.26458333)">
            <path
               d="m 10.2,-18.05 q -1.35,-1.1 -3.3,-1.1 H -6.8 q -1.95,0 -3.35,1.1 -1.35,1.15 -1.35,2.75 0,1.6 1.35,2.7 1.4,1.15 3.35,1.15 H 6.9 q 1.95,0 3.3,-1.15 1.4,-1.1 1.4,-2.7 0,-1.6 -1.4,-2.75 z"
               id="path1001"
               inkscape:connector-curvature="0"
               style="fill:#5393c5;stroke:none" />
          </g>
        </g>
        <g
           id="g2504">
          <g
             id="use2502"
             transform="scale(0.26458333)">
            <path
               d="M 0.85,2.15 Q 0.65,1.8 0.2,1.7 L -5.6,0.05 q -0.45,-0.15 -0.9,0.05 -0.35,0.25 -0.45,0.75 -0.15,0.5 0.05,0.9 0.25,0.4 0.7,0.55 l 5.8,1.65 Q 0.05,4.05 0.45,3.8 0.8,3.6 0.95,3.1 1.05,2.6 0.85,2.15 Z"
               id="path997"
               inkscape:connector-curvature="0"
               style="fill:#334e63;stroke:none" />
          </g>
        </g>
      </g>
    </g>
    <g
       id="g1863"
       transform="matrix(4.3090339,0,0,4.3090339,1832.2161,-393.07418)"
       inkscape:export-xdpi="96"
       inkscape:export-ydpi="96">
      <g
         id="g5090"
         transform="matrix(1.5216178,0,0,1.5216178,-256.96157,141.68301)">
        <g
           id="g5088">
          <g
             id="use5086"
             transform="scale(0.26458333)">
            <path
               d="M 5.3,14 5.45,9 H -0.5 q -1.7,3.35 -6.05,3.5 L -6.6,14 H 5.25 Z"
               id="path1602"
               inkscape:connector-curvature="0"
               style="fill:#3dbf9e;stroke:none" />
            <path
               d="M 10.9,23 11,20 5.25,14 H -6.6 L -7,23 Z"
               id="path1604"
               inkscape:connector-curvature="0"
               style="fill:#3c3e41;stroke:none" />
            <path
               d="M 5.9,-0.2 Q 5.9,-2.6 4,-4.3 2.15,-6 -0.55,-6 -3.2,-6 -5.1,-4.3 -7,-2.6 -7,-0.2 l 0.55,9.2 -0.1,3.5 Q -2.2,12.35 -0.5,9 h 5.95 z"
               id="path1606"
               inkscape:connector-curvature="0"
               style="fill:#eea160;stroke:none" />
          </g>
        </g>
      </g>
      <g
         id="g5096"
         transform="matrix(-1.5216178,0,0,1.5216178,-264.33582,141.68301)">
        <g
           id="g5094">
          <g
             id="use5092"
             transform="scale(0.26458333)">
            <path
               d="M 5.3,14 5.45,9 H -0.5 q -1.7,3.35 -6.05,3.5 L -6.6,14 H 5.25 Z"
               id="path1610"
               inkscape:connector-curvature="0"
               style="fill:#3dbf9e;stroke:none" />
            <path
               d="M 10.9,23 11,20 5.25,14 H -6.6 L -7,23 Z"
               id="path1612"
               inkscape:connector-curvature="0"
               style="fill:#3c3e41;stroke:none" />
            <path
               d="M 5.9,-0.2 Q 5.9,-2.6 4,-4.3 2.15,-6 -0.55,-6 -3.2,-6 -5.1,-4.3 -7,-2.6 -7,-0.2 l 0.55,9.2 -0.1,3.5 Q -2.2,12.35 -0.5,9 h 5.95 z"
               id="path1614"
               inkscape:connector-curvature="0"
               style="fill:#eea160;stroke:none" />
          </g>
        </g>
      </g>
      <g
         id="g5102"
         transform="matrix(1.5153258,-0.13812416,-0.13812416,-1.5153258,-253.6085,133.25742)">
        <g
           id="g5100">
          <g
             id="use5098"
             transform="scale(0.26458333)">
            <path
               d="m 11.75,7.25 h 2.2 Q 11.3,6.05 9.95,3.9 7.5,0.05 4,-3.35 2.25,-4.95 -0.2,-5 -2.65,-4.95 -4.4,-3.2 -6.1,-1.4 -6,1 q 0,2.45 1.7,4.15 2.4,2.3 4,4.95 1.7,2.3 1.6,5.1 L 1.75,14.05 3,10.7 q 2.5,1.45 4.45,1.5 1,-2.1 0.8,-4.95 z"
               id="path1618"
               inkscape:connector-curvature="0"
               style="fill:#4c4eaa;stroke:none" />
            <path
               d="M 13.15,10.6 Q 13,10.2 12.85,9.8 l -10.3,6.7 q 0.4,1.55 0.6,3.25 0.25,2.4 2.15,3.95 1.95,1.5 4.4,1.3 2.4,-0.3 3.95,-2.25 1.55,-1.85 1.3,-4.35 -0.35,-2.9 -1.1,-5.55 -0.3,-1.15 -0.7,-2.25 z"
               id="path1620"
               inkscape:connector-curvature="0"
               style="fill:#3dbf9e;stroke:none" />
            <path
               d="M 12.85,9.8 Q 12.35,8.5 11.75,7.25 H 8.25 Q 8.45,10.1 7.45,12.2 5.5,12.15 3,10.7 l -1.25,3.35 q 0.45,1.2 0.8,2.45 z"
               id="path1622"
               inkscape:connector-curvature="0"
               style="fill:#29a686;stroke:none" />
          </g>
        </g>
      </g>
      <g
         id="g5108"
         transform="matrix(-1.5216178,0,0,-1.5216178,-268.0275,133.7206)">
        <g
           id="g5106">
          <g
             id="use5104"
             transform="scale(0.26458333)">
            <path
               d="m 11.75,7.25 h 2.2 Q 11.3,6.05 9.95,3.9 7.5,0.05 4,-3.35 2.25,-4.95 -0.2,-5 -2.65,-4.95 -4.4,-3.2 -6.1,-1.4 -6,1 q 0,2.45 1.7,4.15 2.4,2.3 4,4.95 1.7,2.3 1.6,5.1 L 1.75,14.05 3,10.7 q 2.5,1.45 4.45,1.5 1,-2.1 0.8,-4.95 z"
               id="path1626"
               inkscape:connector-curvature="0"
               style="fill:#4c4eaa;stroke:none" />
            <path
               d="M 13.15,10.6 Q 13,10.2 12.85,9.8 l -10.3,6.7 q 0.4,1.55 0.6,3.25 0.25,2.4 2.15,3.95 1.95,1.5 4.4,1.3 2.4,-0.3 3.95,-2.25 1.55,-1.85 1.3,-4.35 -0.35,-2.9 -1.1,-5.55 -0.3,-1.15 -0.7,-2.25 z"
               id="path1628"
               inkscape:connector-curvature="0"
               style="fill:#3dbf9e;stroke:none" />
            <path
               d="M 12.85,9.8 Q 12.35,8.5 11.75,7.25 H 8.25 Q 8.45,10.1 7.45,12.2 5.5,12.15 3,10.7 l -1.25,3.35 q 0.45,1.2 0.8,2.45 z"
               id="path1630"
               inkscape:connector-curvature="0"
               style="fill:#29a686;stroke:none" />
          </g>
        </g>
      </g>
      <g
         id="g5130"
         transform="matrix(1.5216178,0,0,1.5216178,-260.31457,138.80258)">
        <g
           id="g5112">
          <g
             id="use5110"
             transform="scale(0.26458333)">
            <path
               d="M 14.55,2.8 H 11.8 L 7.65,-1.65 3.15,2.8 H -15.5 q 0.1,3.3 1.5,5.2 h 27.05 q 1.4,-1.9 1.5,-5.2 z"
               id="path1646"
               inkscape:connector-curvature="0"
               style="fill:#eea160;stroke:none" />
            <path
               d="m 17.75,-15.8 q 1.05,-5.4 -2.6,-5.2 h -31.3 q -3.65,-0.2 -2.6,5.2 l 3.25,13.65 V 2.8 H 3.15 l 4.5,-4.45 4.15,4.45 h 2.75 v -4.95 z"
               id="path1648"
               inkscape:connector-curvature="0"
               style="fill:#676ac6;stroke:none" />
          </g>
        </g>
        <g
           id="g5116">
          <g
             id="use5114"
             transform="scale(0.26458333)">
            <path
               d="M 7.55,-28.45 Q 4.4,-31 0,-31 q -4.4,0 -7.55,2.55 -3.1,2.7 -3.1,6.45 0,0.25 0.05,0.5 0.15,3.4 3.05,5.8 3.15,2.7 7.55,2.7 4.4,0 7.55,-2.7 2.9,-2.4 3.05,-5.8 0.05,-0.25 0.05,-0.5 0,-3.75 -3.1,-6.45 z"
               id="path1652"
               inkscape:connector-curvature="0"
               style="fill:#29a686;stroke:none" />
          </g>
        </g>
        <g
           id="g5120">
          <g
             id="use5118"
             transform="scale(0.26458333)">
            <path
               d="m -13.1,-22 -2.05,3.6 13.1,7.6 L 0,-14.45 -13.1,-22 m 26.2,0 -13.1,7.55 2.05,3.65 13.1,-7.6 z"
               id="path1656"
               inkscape:connector-curvature="0"
               style="fill:#4c4eaa;stroke:none" />
            <path
               d="M 2.05,-10.8 0,-14.45 -2.05,-10.8 Z"
               id="path1658"
               inkscape:connector-curvature="0"
               style="fill:#676ac6;stroke:none" />
          </g>
        </g>
        <g
           id="g5124">
          <g
             id="use5122"
             transform="scale(0.26458333)">
            <path
               d="m 0.95,-8.35 q -0.15,-0.1 -0.25,0 -1.35,0.4 -3.85,2.8 H -3.2 q -2.35,2.55 -2.8,3.8 -0.05,0.15 0,0.25 0.05,0.15 0.2,0.25 0.15,0.05 0.25,0 1.35,-0.4 3.9,-2.7 V -4 Q 0.7,-6.55 1.1,-7.9 1.15,-8.05 1.1,-8.15 1.05,-8.3 0.95,-8.35 Z"
               id="path1662"
               inkscape:connector-curvature="0"
               style="fill:#3dbf9e;stroke:none" />
          </g>
        </g>
        <g
           id="g5128">
          <g
             id="use5126"
             transform="scale(0.26458333)">
            <path
               d="m -13.1,-13.75 q -0.05,0.15 -0.05,0.25 0.05,1.4 1.75,4.45 V -9 q 1.85,2.95 2.9,3.7 0.15,0.05 0.25,0.05 0.2,0 0.3,-0.1 0.1,-0.15 0.1,-0.25 -0.05,-1.4 -1.65,-4.5 -1.9,-2.9 -3.1,-3.65 -0.15,-0.1 -0.25,-0.1 -0.15,0.05 -0.25,0.1 z"
               id="path1666"
               inkscape:connector-curvature="0"
               style="fill:#3dbf9e;stroke:none" />
          </g>
        </g>
      </g>
      <g
         id="g5136"
         transform="matrix(2.3218046e-5,1.5215947,1.5215947,-2.3218046e-5,-251.0395,123.42772)">
        <g
           id="g5134">
          <g
             id="use5132"
             transform="scale(0.26458333)">
            <path
               d="M -9.2,7.6 -9.25,6.65 q 0.5,-6.2 3.8,-9.6 -8.7,6.45 -3.8,10.6 z"
               id="path1634"
               inkscape:connector-curvature="0"
               style="fill:#29a686;stroke:none" />
            <path
               d="M 7,-1.65 Q 6.95,-3 5.5,-3 l -10.95,0.05 q -3.3,3.4 -3.8,9.6 L -9.2,7.6 -9.25,7.65 q -0.05,1.65 0,3.5 v 0.4 q 0,1.4 2.15,1.8 3.15,0.7 6.15,0.65 Q 7.55,13.95 7,-0.75 Z"
               id="path1636"
               inkscape:connector-curvature="0"
               style="fill:#3dbf9e;stroke:none" />
          </g>
        </g>
      </g>
      <g
         id="g5142"
         transform="matrix(-0.18667309,1.5101017,-1.5101017,-0.18667309,-273.17138,124.25749)">
        <g
           id="g5140">
          <g
             id="use5138"
             transform="scale(0.26458333)">
            <path
               d="M -9.2,7.6 -9.25,6.65 q 0.5,-6.2 3.8,-9.6 -8.7,6.45 -3.8,10.6 z"
               id="path1640"
               inkscape:connector-curvature="0"
               style="fill:#29a686;stroke:none" />
            <path
               d="M 7,-1.65 Q 6.95,-3 5.5,-3 l -10.95,0.05 q -3.3,3.4 -3.8,9.6 L -9.2,7.6 -9.25,7.65 q -0.05,1.65 0,3.5 v 0.4 q 0,1.4 2.15,1.8 3.15,0.7 6.15,0.65 Q 7.55,13.95 7,-0.75 Z"
               id="path1642"
               inkscape:connector-curvature="0"
               style="fill:#3dbf9e;stroke:none" />
          </g>
        </g>
      </g>
      <g
         id="g5148"
         transform="matrix(2.1587211,0,0,1.0943594,-262.39912,129.54876)">
        <g
           id="g5146">
          <g
             id="use5144"
             transform="scale(0.26458333)">
            <path
               d="m 9.45,-9.55 q -3.9,-3.9 -9.45,-3.9 -5.55,0 -9.55,3.9 -3.9,4 -3.9,9.55 0,5.55 3.9,9.45 4,4 9.55,4 5.55,0 9.45,-4 4,-3.9 4,-9.45 0,-5.55 -4,-9.55 z"
               id="path1670"
               inkscape:connector-curvature="0"
               style="fill:url(#radialGradient1674);stroke:none" />
          </g>
        </g>
      </g>
      <g
         transform="translate(-3.0735996,27.261492)"
         id="g1766">
        <g
           transform="matrix(1.5066654,-0.21270049,0.21270049,1.5066654,-256.96703,98.251462)"
           id="g5152">
          <g
             transform="scale(0.26458333)"
             id="use5150">
            <path
               style="fill:#3dbf9e;stroke:none"
               inkscape:connector-curvature="0"
               id="path1676"
               d="M -24.65,-11.25 Q -27,-8.9 -27,-5.5 q 0,3.3 2.35,5.7 2.4,2.4 5.7,2.4 3.3,0 5.7,-2.4 2.35,-2.4 2.35,-5.7 0,-3.4 -2.35,-5.75 -2.4,-2.4 -5.7,-2.4 -3.3,0 -5.7,2.4 m 2.3,9.15 q -1.4,-1.4 -1.4,-3.4 0,-1.95 1.4,-3.5 1.4,-1.4 3.4,-1.4 2.05,0 3.45,1.4 1.4,1.55 1.4,3.5 0,2 -1.4,3.4 -1.4,1.5 -3.45,1.5 -2,0 -3.4,-1.5 M 18.3,-13.65 q -3.3,0 -5.7,2.4 -2.35,2.35 -2.35,5.75 0,3.3 2.35,5.7 2.4,2.4 5.7,2.4 3.3,0 5.7,-2.4 2.35,-2.4 2.35,-5.7 0,-3.4 -2.35,-5.75 -2.4,-2.4 -5.7,-2.4 m 0,13.05 q -2,0 -3.4,-1.5 -1.45,-1.4 -1.45,-3.4 0,-1.95 1.45,-3.5 1.4,-1.4 3.4,-1.4 2,0 3.45,1.4 1.4,1.55 1.4,3.5 0,2 -1.4,3.4 -1.45,1.5 -3.45,1.5 z" />
            <path
               style="fill:#29a686;stroke:none"
               inkscape:connector-curvature="0"
               id="path1678"
               d="m -23.75,-5.5 q 0,2 1.4,3.4 1.4,1.5 3.4,1.5 2.05,0 3.45,-1.5 1.4,-1.4 1.4,-3.4 0,-1.95 -1.4,-3.5 -1.4,-1.4 -3.45,-1.4 -2,0 -3.4,1.4 -1.4,1.55 -1.4,3.5 m 38.65,3.4 q 1.4,1.5 3.4,1.5 2,0 3.45,-1.5 1.4,-1.4 1.4,-3.4 0,-1.95 -1.4,-3.5 -1.45,-1.4 -3.45,-1.4 -2,0 -3.4,1.4 -1.45,1.55 -1.45,3.5 0,2 1.45,3.4 z" />
          </g>
        </g>
        <g
           transform="matrix(1.5066654,-0.21270049,0.21270049,1.5066654,-256.96703,98.251462)"
           id="g5156">
          <g
             transform="scale(0.26458333)"
             id="use5154">
            <path
               style="fill:#3dbf9e;stroke:none"
               inkscape:connector-curvature="0"
               id="path1682"
               d="M 11.75,8 Q 17.1,7.3 17.85,2.15 L 20.5,-24.2 h -42 L -18.25,8 Z" />
          </g>
        </g>
        <g
           transform="matrix(1.5066654,-0.21270049,0.21270049,1.5066654,-256.96703,98.251462)"
           id="g5160">
          <g
             transform="scale(0.26458333)"
             id="use5158">
            <path
               style="fill:#454a51;stroke:none"
               inkscape:connector-curvature="0"
               id="path1686"
               d="m 26.6,-36.25 q -0.65,-3.1 -2.35,-6.15 l -10.6,1.5 q -4.75,0.5 -10.9,-5.95 -2,-2.3 -3.45,0 -3.9,7.35 -10.7,11.5 -3.7,1.65 -9.1,0 4.65,3.35 9.2,5 6.25,-4.65 11.2,-11.85 1.75,-2.3 3.7,0.15 4.2,4.65 7.95,6 2.65,1.75 1.1,10.65 7.15,-3.35 7.95,-10.7 l 5.8,-0.55 q 0.1,0.2 0.2,0.4 z" />
            <path
               style="fill:#3c3e41;stroke:none"
               inkscape:connector-curvature="0"
               id="path1688"
               d="m 26.15,-26.8 q 0.5,-1.6 0.7,-3.2 v -0.1 q 0.35,-3.1 -0.25,-6.15 -0.1,-0.2 -0.2,-0.4 l -5.8,0.55 q -0.8,7.35 -7.95,10.7 1.55,-8.9 -1.1,-10.65 -3.75,-1.35 -7.95,-6 -1.95,-2.45 -3.7,-0.15 -4.95,7.2 -11.2,11.85 -4.55,-1.65 -9.2,-5 -1.85,4.15 -1.95,4.55 -1.1,3.5 -0.85,7 0.1,1.25 0.35,2.6 l 3.9,5.6 v -5.15 q 0.8,-0.15 1.6,-0.3 0.15,0.05 0.3,0.1 5.3,2.3 12.8,2.3 7.5,0 12.8,-2.3 1.45,-0.65 2.5,-1.35 4.65,0.55 9.35,1.55 v 5.8 l 1.2,-2.45 q 4.25,-8.3 4.65,-9.4 z" />
          </g>
        </g>
        <g
           transform="matrix(1.5066654,-0.21270049,0.21270049,1.5066654,-256.96703,98.251462)"
           id="g5164">
          <g
             transform="scale(0.26458333)"
             id="use5162">
            <path
               style="fill:#29a686;stroke:none"
               inkscape:connector-curvature="0"
               id="path1692"
               d="M 2.25,-2.4 Q 3.3,-3.1 3.3,-4 q 0,-0.9 -1.05,-1.65 -1,-0.65 -2.45,-0.65 -1.4,0 -2.4,0.65 -1,0.75 -1,1.65 0,0.9 1,1.6 1,0.75 2.4,0.75 1.45,0 2.45,-0.75 z" />
          </g>
        </g>
        <g
           transform="matrix(1.5066654,-0.21270049,0.21270049,1.5066654,-256.96703,98.251462)"
           id="g5168">
          <g
             transform="scale(0.26458333)"
             id="use5166">
            <path
               style="fill:#29a686;stroke:none"
               inkscape:connector-curvature="0"
               id="path1704"
               d="m 16.65,-4.35 q 0,-2.5 -1.65,-4.35 -1.75,-1.8 -4.3,-1.8 -2.45,0 -4.1,1.8 -1.75,1.85 -1.75,4.35 0,2.5 1.75,4.35 1.65,1.85 4.1,1.85 2.55,0 4.3,-1.85 1.65,-1.85 1.65,-4.35 z" />
          </g>
        </g>
        <g
           transform="matrix(1.5066654,-0.21270049,0.21270049,1.5066654,-256.96703,98.251462)"
           id="g5172">
          <g
             transform="scale(0.26458333)"
             id="use5170">
            <path
               style="fill:#ffcc00;stroke:none"
               inkscape:connector-curvature="0"
               id="path1708"
               d="m 7.15,-5.7 q 0,1.45 1,2.45 0.9,1.05 2.3,1.05 1.5,0 2.45,-1.05 0.95,-1 0.95,-2.45 0,-1.4 -0.95,-2.5 -0.95,-1 -2.45,-1 -1.4,0 -2.3,1 -1,1.1 -1,2.5 z" />
          </g>
        </g>
        <g
           transform="matrix(1.5066654,-0.21270049,0.21270049,1.5066654,-256.96703,98.251462)"
           id="g5176">
          <g
             transform="scale(0.26458333)"
             id="use5174">
            <path
               style="fill:#29a686;stroke:none"
               inkscape:connector-curvature="0"
               id="path1712"
               d="m -5.5,-3.85 q 1.75,-1.8 1.75,-4.35 0,-2.5 -1.75,-4.3 -1.65,-1.8 -4.1,-1.8 -2.55,0 -4.3,1.8 -1.65,1.8 -1.65,4.3 0,2.55 1.65,4.35 1.75,1.85 4.3,1.85 2.45,0 4.1,-1.85 z" />
          </g>
        </g>
        <g
           transform="matrix(1.5066654,-0.21270049,0.21270049,1.5066654,-256.96703,98.251462)"
           id="g5180">
          <g
             transform="scale(0.26458333)"
             id="use5178">
            <path
               style="fill:#454a51;stroke:none"
               inkscape:connector-curvature="0"
               id="path1716"
               d="m -12.8,-18.35 -0.95,3.5 9.1,2.4 0.95,-3.45 z" />
          </g>
        </g>
        <g
           transform="matrix(1.5066654,-0.21270049,0.21270049,1.5066654,-256.96703,98.251462)"
           id="g5184">
          <g
             transform="scale(0.26458333)"
             id="use5182">
            <path
               style="fill:#454a51;stroke:none"
               inkscape:connector-curvature="0"
               id="path1696"
               d="m 15.05,-10.95 -0.55,-3.55 -9.35,1.3 0.6,3.6 z" />
          </g>
        </g>
        <g
           transform="matrix(1.5066654,-0.21270049,0.21270049,1.5066654,-256.96703,98.251462)"
           id="g5188">
          <g
             transform="scale(0.26458333)"
             id="use5186">
            <path
               style="fill:#ffcc00;stroke:none"
               inkscape:connector-curvature="0"
               id="path1720"
               d="m -7.05,-7.05 q 1,-1 1,-2.5 0,-1.4 -1,-2.45 -0.9,-1 -2.3,-1 -1.5,0 -2.45,1 -0.95,1.05 -0.95,2.45 0,1.5 0.95,2.5 0.95,1.05 2.45,1.05 1.4,0 2.3,-1.05 z" />
          </g>
        </g>
        <g
           transform="matrix(1.5066654,-0.21270049,0.21270049,1.5066654,-256.96703,98.251462)"
           id="g5192">
          <g
             transform="scale(0.26458333)"
             id="use5190">
            <path
               style="fill:#197e64;stroke:none"
               inkscape:connector-curvature="0"
               id="path1724"
               d="M -4,1.05 -3.5,3 4,0.95 3.5,-1 Z" />
          </g>
        </g>
        <g
           transform="matrix(1.5066654,-0.21270049,0.21270049,1.5066654,-256.96703,98.251462)"
           id="g5196">
          <g
             transform="scale(0.26458333)"
             id="use5194">
            <path
               style="fill:#3c3e41;stroke:none"
               inkscape:connector-curvature="0"
               id="path1700"
               d="m -20.6,-23.3 h -0.05 q -1,0.15 -1.65,1 -0.65,0.8 -0.5,1.8 l 1.3,10.55 q 0.1,0.95 0.95,1.65 0.8,0.65 1.8,0.5 h 0.05 q 1,-0.1 1.6,-0.95 0.6,-0.8 0.5,-1.8 l -1.3,-10.5 q -0.15,-1.05 -0.95,-1.7 -0.75,-0.6 -1.75,-0.55 m 38.8,0.55 q -0.8,0.65 -0.95,1.7 l -1.45,11.9 q -0.1,1 0.5,1.85 0.6,0.8 1.6,0.9 h 0.05 q 1,0.15 1.8,-0.45 0.85,-0.7 0.95,-1.7 l 1.45,-11.95 q 0.15,-1 -0.5,-1.8 -0.65,-0.85 -1.65,-1 h -0.05 q -1,-0.05 -1.75,0.55 z" />
          </g>
        </g>
      </g>
    </g>
  </g>
</svg>
